<?xml version="1.0" encoding="utf-8"?>
<!-- Generator: Adobe Illustrator 25.2.3, SVG Export Plug-In . SVG Version: 6.00 Build 0)  -->
<svg version="1.1" xmlns="http://www.w3.org/2000/svg" xmlns:xlink="http://www.w3.org/1999/xlink" x="0px" y="0px"
	 viewBox="0 0 963.78 841.89" style="enable-background:new 0 0 963.78 841.89;" xml:space="preserve">
<style type="text/css">
	.st0{fill-rule:evenodd;clip-rule:evenodd;fill:#00285D;}
	.st1{fill-rule:evenodd;clip-rule:evenodd;}
	.st2{fill-rule:evenodd;clip-rule:evenodd;fill:#D1D3D4;}
	.st3{fill-rule:evenodd;clip-rule:evenodd;fill:#58595B;}
	.st4{fill-rule:evenodd;clip-rule:evenodd;fill:#939598;}
	.st5{fill:none;stroke:#000000;stroke-width:0.4252;stroke-miterlimit:2.6131;}
</style>
<path class="st0" d="M235.79,605.6h29.31c2.78,0,5.96-2.21,7.13-5.12l1.22-2.87h-15.47l7.33-17.07h40.79l-0.02,0.06l-16.27,37.91
	c-3.19,6.96-8.13,11.94-17.45,11.46l-73.53-0.11l37.48-87.32c3.19-7.04,8.11-11.67,17.4-11.47l73.65-0.01l-17.56,40.88h-25.38
	l7.17-16.77h-32.11c-1.15,0-2.48,0.98-2.97,2.13L235.79,605.6L235.79,605.6z M242.3,496.35l-73.83,0.09
	c-9.36-0.26-14.26,4.56-17.5,11.61c-1.23,2.7-3.26,7.32-5.78,13.11L98.48,629.95l74.18,0.03c9.37,0.03,14.25-4.57,17.48-11.63
	c1.24-2.7,3.26-7.31,5.78-13.1l-60.48-0.14l12.47-28.96h34.09l10.61-24.7h-34.07l12.11-28.11c0.5-1.17,1.83-2.16,2.98-2.16h32.33
	l25.61-0.03L242.3,496.35L242.3,496.35z M788.23,572.24h29.16c2.78,0,5.91-2.34,7.13-5.12l5.24-11.95h-32.17
	c-1.16,0-2.48,0.98-2.97,2.13L788.23,572.24L788.23,572.24z M789.96,597.41h-13.09c-4.09,9.52-7.46,17.26-9.21,21.09
	c-3.19,6.96-8.04,11.57-17.45,11.43H736.8l13.78-32.38c9.56-22.45,20.07-47.09,23.7-55.01c3.19-6.96,8.11-11.93,17.43-11.45
	l73.59-0.03c-9.56,22.45-20.07,47.09-23.7,55.01c-3.19,6.96-8.11,11.94-17.43,11.46l22.93,32.4h-35.2L789.96,597.41L789.96,597.41z
	 M413.5,531.09l13.5-0.03c-9.54,22.45-20,47.09-23.63,55.01c-3.18,6.96-8.08,11.94-17.36,11.46l-17.29,0.01
	c-4.08,9.52-7.43,17.13-9.18,20.97c-3.18,6.96-8.08,11.94-17.36,11.46L328.62,630l13.96-32.45h-30.13
	c9.53-22.45,19.99-47.09,23.62-55.01c3.18-6.96,8.08-11.93,17.36-11.45l13.48-0.05l-17.47,41.2l29.24,0.01
	c2.77,0,5.97-2.31,7.11-5.12c3.33-8.25,6.64-16.47,10.33-24.58C399.31,535.58,404.14,530.88,413.5,531.09L413.5,531.09z
	 M697.09,629.93l13.57,0.03c9.32,0.47,14.24-4.5,17.42-11.46l37.54-87.42l-13.57,0.01c-9.31-0.47-14.24,4.5-17.42,11.45
	c-3.63,7.93-14.14,32.56-23.7,55.01L697.09,629.93L697.09,629.93z M449.09,572.24h28.83c2.77,0,5.89-2.34,7.11-5.12l5.22-11.95
	h-31.83c-1.15,0-2.48,0.98-2.96,2.13L449.09,572.24L449.09,572.24z M438.35,597.41l47.32,0.11c9.62-0.01,14.18-4.5,17.36-11.46
	c3.62-7.92,14.1-32.56,23.63-55.01l-73.69,0.03c-9.33-0.25-14.18,4.5-17.36,11.45l-37.36,87.41l13.56,0.01
	c9.41,0.16,14.18-4.5,17.36-11.46C430.92,614.67,434.28,606.93,438.35,597.41L438.35,597.41z M527.82,629.93l13.59,0.03
	c9.27,0.47,14.16-4.5,17.33-11.46c3.52-7.72,13.53-31.27,22.83-53.23c0.25-0.59,4.04-9.54,4.3-10.13h30.01l10.22-24.03l-73.45-0.04
	c-9.34-0.46-14.24,4.51-17.4,11.47l-5.34,12.67l29.86-0.07L527.82,629.93L527.82,629.93z M648.3,572.24h28.69
	c2.78,0,5.92-2.33,7.12-5.12l5.16-11.95h-31.61c-1.15,0-2.48,0.98-2.98,2.13L648.3,572.24L648.3,572.24z M671.13,597.54h-33.61
	c-4.09,9.51-7.44,17.13-9.19,20.97c-3.19,6.96-8.11,11.94-17.68,11.45l-13.2-0.01l13.82-32.39c9.56-22.45,20.07-47.09,23.7-55.01
	c3.18-6.96,7.59-11.49,17.42-11.45l73.4,0L688.3,618.5c-3.19,6.96-8.11,11.94-17.42,11.46h-13.17L671.13,597.54L671.13,597.54z
	 M533.44,274.83c7.79,9.05,19.16,12.28,26.27,7.09c4.54-3.32,6.34-9.35,5.42-15.93c4.09,0.64,8.44,1.94,13.28,3.93
	c2.57,0.88,5.42-9.43,1.63-9.75c-41.04-5.92-63.83,27.07-63.27,26.64C523.03,282.02,528.48,278.03,533.44,274.83L533.44,274.83z
	 M556.99,278.52c-5.53,4.38-14.53,1.7-20.91-5.33c8.59-5.19,15.86-7.77,23.78-7.65C561.35,270.61,559.96,276.15,556.99,278.52
	L556.99,278.52z M352.65,293.13c7.05-23.13,19.27-44.04,35.27-61.41c70.68-29.78,161.91-29.57,230.08,25.26
	C575.09,235.2,448.47,211.97,352.65,293.13L352.65,293.13z M348.52,368.75c-3.15-16.7-3.59-33.85-1.31-50.69
	c50.01-50.83,124.91-84.14,203.41-67.78C507.62,250.37,404.55,279.82,348.52,368.75L348.52,368.75z M375.2,431.31
	c-8.3-11.63-15.05-24.43-19.99-38.08c29.73-62.95,87.1-117.7,164.18-129.63C481.04,278.09,400.98,336.71,375.2,431.31L375.2,431.31z
	 M423.74,476.04c-11.77-7.01-22.56-15.49-32.12-25.19c10.28-66.5,50.85-135.93,115.99-172.07c-4.69,7.08-6.94,15.28-6.52,24.06
	C463.06,341.26,425.44,400.85,423.74,476.04L423.74,476.04z M483.97,496.96c-12.85-1.69-25.22-4.92-36.93-9.5
	c0.39-60.12,19.98-131.6,55.42-175.37c1.92,7.68,5.76,15.62,11.66,23.49c28.15-33,60.64-56.3,100.76-66.59
	C560.07,289.72,474.68,355.96,483.97,496.96L483.97,496.96z"/>
</svg>
